<?xml version="1.0" encoding="utf-8"?>
<!-- Generator: Adobe Illustrator 17.0.0, SVG Export Plug-In . SVG Version: 6.00 Build 0)  -->
<!DOCTYPE svg PUBLIC "-//W3C//DTD SVG 1.1//EN" "http://www.w3.org/Graphics/SVG/1.1/DTD/svg11.dtd">
<svg version="1.1" xmlns="http://www.w3.org/2000/svg" xmlns:xlink="http://www.w3.org/1999/xlink" x="0px" y="0px"
	 width="450.001px" height="270px" viewBox="0 0 450.001 270" enable-background="new 0 0 450.001 270" xml:space="preserve">
<g id="light">
	<g>
		<g>
			<g>
				<path d="M99.069,140.861c1.576,1.428,3.842,2.709,6.009,2.709c1.576,0,3.349-0.69,3.349-2.561c0-2.069-2.413-2.413-5.123-3.596
					c-3.054-1.33-5.615-2.955-5.615-6.847c0-5.073,4.088-7.241,9.161-7.241c2.758,0,5.714,0.64,7.832,2.019v0.591l-1.97,3.891
					c-1.379-1.034-3.251-1.724-5.32-1.724c-1.822,0-2.955,0.739-2.955,2.167c0,1.872,2.167,2.266,4.876,3.3
					c3.743,1.428,6.009,3.005,6.009,6.994c0,5.221-4.088,7.487-9.506,7.487c-3.448,0-6.206-0.936-8.817-2.906v-0.591L99.069,140.861
					z"/>
				<path d="M128.179,148.053c-8.029,0-11.279-5.566-11.279-12.511c0-6.847,3.005-12.215,10.935-12.215
					c7.635,0,10.344,4.926,10.344,11.329c0,0.739-0.197,2.069-0.493,2.857c-1.872,0-13.348-0.098-13.841-0.098
					c0.049,2.61,1.182,6.058,5.123,6.058c2.019,0,3.694-1.034,5.172-2.61l2.808,3.152v0.591
					C134.582,146.673,131.824,148.053,128.179,148.053z M127.834,128.154c-2.413,0-3.793,1.872-3.94,5.763
					c0.542,0,7.388-0.148,7.635-0.148C131.528,130.075,130.444,128.154,127.834,128.154z"/>
				<path d="M161.721,128.449v19.948c0,6.797-5.122,9.654-10.738,9.654c-3.152,0-6.551-0.837-9.211-2.413l1.773-4.384h0.591
					c1.773,1.182,3.99,1.97,6.108,1.97c2.906,0,4.531-1.478,4.531-4.039c0-0.394,0.148-2.66,0.246-4.039l-0.197-0.098
					c-1.675,1.527-3.694,2.955-6.452,2.955c-6.748,0-8.373-6.157-8.373-12.462c0-6.157,2.512-12.215,8.521-12.215
					c2.66,0,4.778,1.182,6.551,2.808l0.148-0.099l0.493-1.724l0.542-0.493l5.615,0.148
					C161.82,124.459,161.721,126.971,161.721,128.449z M154.825,130.419c-1.084-1.231-2.561-1.97-3.891-1.97
					c-3.3,0-3.694,4.433-3.694,7.093c0,2.906,0.148,7.782,3.251,7.782c1.379,0,3.103-1.133,4.236-2.561
					C154.727,140.27,154.825,130.961,154.825,130.419z"/>
				<path d="M191.274,147.412c0-0.443,0.197-15.072,0.197-15.515c0-2.463-0.64-3.399-2.167-3.399c-1.133,0-2.709,0.64-3.94,1.625
					c0,0.493,0,16.796,0,17.289h-6.797c0-0.443,0.099-15.072,0.099-15.515c0-2.463-0.591-3.399-2.019-3.399
					c-1.182,0-2.808,0.69-4.039,1.675l0.049,17.239h-6.994v-17.387c0-1.675-0.098-5.024-0.148-6.058l5.812-0.148l0.542,0.493
					l0.345,1.921l0.098,0.049c2.118-1.724,5.073-2.906,7.585-2.906c1.97,0,3.842,0.887,4.778,3.005
					c2.413-1.872,5.517-3.005,8.029-3.005c3.202,0,5.714,1.97,5.714,6.994c0,0.493-0.148,16.55-0.148,17.042H191.274z"/>
				<path d="M212.552,148.053c-8.029,0-11.279-5.566-11.279-12.511c0-6.847,3.005-12.215,10.935-12.215
					c7.635,0,10.344,4.926,10.344,11.329c0,0.739-0.197,2.069-0.493,2.857c-1.872,0-13.348-0.098-13.841-0.098
					c0.049,2.61,1.182,6.058,5.123,6.058c2.019,0,3.694-1.034,5.172-2.61l2.808,3.152v0.591
					C218.955,146.673,216.197,148.053,212.552,148.053z M212.207,128.154c-2.413,0-3.793,1.872-3.94,5.763
					c0.542,0,7.388-0.148,7.635-0.148C215.901,130.075,214.818,128.154,212.207,128.154z"/>
				<path d="M238.607,147.412c0-0.443,0.197-15.072,0.197-15.515c0-2.512-0.591-3.399-2.266-3.399c-1.231,0-3.005,0.788-4.335,1.675
					l0.049,17.239h-6.994v-17.387c0-1.724-0.098-5.024-0.148-6.058l5.812-0.148l0.542,0.493l0.345,1.921l0.099,0.049
					c2.216-1.625,5.418-2.906,8.028-2.906c3.3,0,5.812,1.97,5.812,6.994c0,0.493-0.148,16.55-0.148,17.042H238.607z"/>
				<path d="M257.423,147.412c-6.157,0-6.6-3.546-6.6-6.994c0-0.493,0-6.896,0.099-11.526c-1.527,0.049-2.512,0.049-3.004,0.049
					l0.049-4.975c0.493,0,1.428,0,2.955,0.049c-0.049-2.709-0.099-6.206-0.099-6.649l0.493-0.493h6.502c0,0.443,0,3.399-0.098,7.142
					c1.724-0.049,4.039-0.049,4.531-0.049l-0.098,4.975c-0.493,0-2.709,0-4.433-0.049c0.049,4.482,0.049,10.245,0.049,10.688
					c0,2.463,0.049,2.955,2.216,2.955h1.921l0.099,4.384l-0.493,0.493H257.423z"/>
			</g>
			<g>
				<path fill="#009A5B" d="M268.085,147.412c0-0.493,0.099-13.89,0.148-18.52c-1.33,0.049-2.709,0.049-3.103,0.049l0.049-4.975
					c0.394,0,1.724,0,3.005,0.049c0-0.197-0.099-4.285-0.099-4.433c0-5.566,3.251-7.635,7.487-7.635
					c1.822,0,3.694,0.296,5.566,1.084v0.739l-1.428,3.94c-0.788-0.443-1.675-0.69-2.463-0.69c-1.379,0-2.266,0.69-2.266,3.3
					c0,0.887,0.049,3.497,0.049,3.694c1.478-0.049,4.285-0.049,4.679-0.049l-0.049,4.975c-0.394,0-3.202,0-4.679-0.049
					c0.099,4.63,0.099,18.027,0.099,18.52H268.085z"/>
				<path fill="#009A5B" d="M295.668,147.412l-0.493-0.493l-0.591-1.872l-0.197-0.049c-2.118,1.921-4.482,3.054-7.388,3.054
					c-5.27,0-6.206-4.531-6.206-7.191c0-7.585,6.502-8.029,13.299-8.423v-1.527c0-2.167-1.428-2.709-3.152-2.709
					c-3.054,0-5.861,0.985-7.536,1.625l-1.527-3.94v-0.591c4.482-1.625,8.373-1.97,11.082-1.97c4.876,0,8.078,2.019,8.078,7.29
					v11.132c0,1.921,0.099,4.679,0.148,5.664H295.668z M294.141,136.133c-4.63,0.098-6.649,0.148-6.649,3.842
					c0,1.724,0.443,3.349,2.315,3.349c1.182,0,2.808-0.64,4.285-2.167c0-0.296,0.099-4.679,0.099-4.975L294.141,136.133z"/>
				<path fill="#009A5B" d="M320.147,147.412l-0.493-0.493l-0.591-1.97l-0.197-0.049c-2.61,2.463-5.32,3.152-8.029,3.152
					c-3.596,0-6.206-1.97-6.206-6.994c0-0.493,0.148-16.599,0.148-17.092h6.502l0.493,0.493c0,0.542-0.148,14.678-0.148,15.318
					c0,1.773,0.591,3.448,2.364,3.448c1.478,0,3.448-0.985,4.63-2.216l-0.099-17.042h6.502l0.493,0.493v17.289
					c0,1.921,0.099,4.679,0.148,5.664H320.147z"/>
				<path fill="#009A5B" d="M336.352,141.748c0,1.872,0.099,4.679,0.197,5.664h-6.994c-0.099-0.985-0.197-3.793-0.197-5.664V118.45
					c0-1.872-0.049-4.679-0.148-5.664l6.649-0.197l0.493,0.493V141.748z"/>
				<path fill="#009A5B" d="M348.174,147.412c-6.157,0-6.6-3.546-6.6-6.994c0-0.493,0-6.896,0.099-11.526
					c-1.527,0.049-2.512,0.049-3.004,0.049l0.049-4.975c0.493,0,1.428,0,2.955,0.049c-0.049-2.709-0.099-6.206-0.099-6.649
					l0.493-0.493h6.502c0,0.443,0,3.399-0.098,7.142c1.724-0.049,4.039-0.049,4.531-0.049l-0.098,4.975
					c-0.493,0-2.709,0-4.433-0.049c0.049,4.482,0.049,10.245,0.049,10.688c0,2.463,0.049,2.955,2.216,2.955h1.921l0.099,4.384
					l-0.493,0.493H348.174z"/>
			</g>
		</g>
	</g>
</g>
<g id="dark">
	<rect x="0" y="292" width="450.001" height="270"/>
	<g>
		<g>
			<g>
				<path fill="#FFFFFF" d="M99.069,432.861c1.576,1.428,3.842,2.709,6.009,2.709c1.576,0,3.349-0.69,3.349-2.561
					c0-2.069-2.413-2.413-5.123-3.596c-3.054-1.33-5.615-2.955-5.615-6.846c0-5.073,4.088-7.241,9.161-7.241
					c2.758,0,5.714,0.64,7.832,2.019v0.591l-1.97,3.891c-1.379-1.034-3.251-1.724-5.32-1.724c-1.822,0-2.955,0.739-2.955,2.167
					c0,1.872,2.167,2.266,4.876,3.3c3.743,1.428,6.009,3.005,6.009,6.994c0,5.221-4.088,7.487-9.506,7.487
					c-3.448,0-6.206-0.936-8.817-2.906v-0.591L99.069,432.861z"/>
				<path fill="#FFFFFF" d="M128.179,440.053c-8.029,0-11.279-5.566-11.279-12.511c0-6.846,3.005-12.215,10.935-12.215
					c7.635,0,10.344,4.926,10.344,11.329c0,0.739-0.197,2.069-0.493,2.857c-1.872,0-13.348-0.098-13.841-0.098
					c0.049,2.61,1.182,6.058,5.123,6.058c2.019,0,3.694-1.034,5.172-2.61l2.808,3.152v0.591
					C134.582,438.673,131.824,440.053,128.179,440.053z M127.834,420.154c-2.413,0-3.793,1.872-3.94,5.763
					c0.542,0,7.388-0.148,7.635-0.148C131.528,422.074,130.444,420.154,127.834,420.154z"/>
				<path fill="#FFFFFF" d="M161.721,420.449v19.948c0,6.797-5.122,9.654-10.738,9.654c-3.152,0-6.551-0.837-9.211-2.413
					l1.773-4.384h0.591c1.773,1.182,3.99,1.97,6.108,1.97c2.906,0,4.531-1.478,4.531-4.039c0-0.394,0.148-2.66,0.246-4.039
					l-0.197-0.098c-1.675,1.527-3.694,2.955-6.452,2.955c-6.748,0-8.373-6.157-8.373-12.462c0-6.157,2.512-12.215,8.521-12.215
					c2.66,0,4.778,1.182,6.551,2.808l0.148-0.099l0.493-1.724l0.542-0.493l5.615,0.148
					C161.82,416.459,161.721,418.971,161.721,420.449z M154.825,422.419c-1.084-1.231-2.561-1.97-3.891-1.97
					c-3.3,0-3.694,4.433-3.694,7.093c0,2.906,0.148,7.782,3.251,7.782c1.379,0,3.103-1.133,4.236-2.561
					C154.727,432.27,154.825,422.961,154.825,422.419z"/>
				<path fill="#FFFFFF" d="M191.274,439.412c0-0.443,0.197-15.072,0.197-15.515c0-2.463-0.64-3.399-2.167-3.399
					c-1.133,0-2.709,0.64-3.94,1.625c0,0.493,0,16.796,0,17.289h-6.797c0-0.443,0.099-15.072,0.099-15.515
					c0-2.463-0.591-3.399-2.019-3.399c-1.182,0-2.808,0.69-4.039,1.675l0.049,17.239h-6.994v-17.387
					c0-1.675-0.098-5.024-0.148-6.058l5.812-0.148l0.542,0.493l0.345,1.921l0.098,0.049c2.118-1.724,5.073-2.906,7.585-2.906
					c1.97,0,3.842,0.887,4.778,3.005c2.413-1.872,5.517-3.005,8.029-3.005c3.202,0,5.714,1.97,5.714,6.994
					c0,0.493-0.148,16.55-0.148,17.042H191.274z"/>
				<path fill="#FFFFFF" d="M212.552,440.053c-8.029,0-11.279-5.566-11.279-12.511c0-6.846,3.005-12.215,10.935-12.215
					c7.635,0,10.344,4.926,10.344,11.329c0,0.739-0.197,2.069-0.493,2.857c-1.872,0-13.348-0.098-13.841-0.098
					c0.049,2.61,1.182,6.058,5.123,6.058c2.019,0,3.694-1.034,5.172-2.61l2.808,3.152v0.591
					C218.955,438.673,216.197,440.053,212.552,440.053z M212.207,420.154c-2.413,0-3.793,1.872-3.94,5.763
					c0.542,0,7.388-0.148,7.635-0.148C215.901,422.074,214.818,420.154,212.207,420.154z"/>
				<path fill="#FFFFFF" d="M238.607,439.412c0-0.443,0.197-15.072,0.197-15.515c0-2.512-0.591-3.399-2.266-3.399
					c-1.231,0-3.005,0.788-4.335,1.675l0.049,17.239h-6.994v-17.387c0-1.724-0.098-5.024-0.148-6.058l5.812-0.148l0.542,0.493
					l0.345,1.921l0.099,0.049c2.216-1.625,5.418-2.906,8.028-2.906c3.3,0,5.812,1.97,5.812,6.994c0,0.493-0.148,16.55-0.148,17.042
					H238.607z"/>
				<path fill="#FFFFFF" d="M257.423,439.412c-6.157,0-6.6-3.546-6.6-6.994c0-0.492,0-6.896,0.099-11.526
					c-1.527,0.049-2.512,0.049-3.004,0.049l0.049-4.975c0.493,0,1.428,0,2.955,0.049c-0.049-2.709-0.099-6.206-0.099-6.649
					l0.493-0.493h6.502c0,0.443,0,3.399-0.098,7.142c1.724-0.049,4.039-0.049,4.531-0.049l-0.098,4.975
					c-0.493,0-2.709,0-4.433-0.049c0.049,4.482,0.049,10.245,0.049,10.688c0,2.463,0.049,2.955,2.216,2.955h1.921l0.099,4.384
					l-0.493,0.493H257.423z"/>
			</g>
			<g>
				<path fill="#009A5B" d="M268.085,439.412c0-0.493,0.099-13.89,0.148-18.52c-1.33,0.049-2.709,0.049-3.103,0.049l0.049-4.975
					c0.394,0,1.724,0,3.005,0.049c0-0.197-0.099-4.285-0.099-4.433c0-5.566,3.251-7.635,7.487-7.635
					c1.822,0,3.694,0.296,5.566,1.084v0.739l-1.428,3.94c-0.788-0.443-1.675-0.69-2.463-0.69c-1.379,0-2.266,0.69-2.266,3.3
					c0,0.887,0.049,3.497,0.049,3.694c1.478-0.049,4.285-0.049,4.679-0.049l-0.049,4.975c-0.394,0-3.202,0-4.679-0.049
					c0.099,4.63,0.099,18.027,0.099,18.52H268.085z"/>
				<path fill="#009A5B" d="M295.668,439.412l-0.493-0.493l-0.591-1.872l-0.197-0.049c-2.118,1.921-4.482,3.054-7.388,3.054
					c-5.27,0-6.206-4.531-6.206-7.191c0-7.585,6.502-8.029,13.299-8.423v-1.527c0-2.167-1.428-2.709-3.152-2.709
					c-3.054,0-5.861,0.985-7.536,1.625l-1.527-3.94v-0.591c4.482-1.625,8.373-1.97,11.082-1.97c4.876,0,8.078,2.019,8.078,7.29
					v11.132c0,1.921,0.099,4.679,0.148,5.664H295.668z M294.141,428.133c-4.63,0.098-6.649,0.148-6.649,3.842
					c0,1.724,0.443,3.349,2.315,3.349c1.182,0,2.808-0.64,4.285-2.167c0-0.296,0.099-4.679,0.099-4.975L294.141,428.133z"/>
				<path fill="#009A5B" d="M320.147,439.412l-0.493-0.493l-0.591-1.97l-0.197-0.049c-2.61,2.463-5.32,3.152-8.029,3.152
					c-3.596,0-6.206-1.97-6.206-6.994c0-0.493,0.148-16.599,0.148-17.092h6.502l0.493,0.493c0,0.542-0.148,14.678-0.148,15.318
					c0,1.773,0.591,3.448,2.364,3.448c1.478,0,3.448-0.985,4.63-2.216l-0.099-17.042h6.502l0.493,0.493v17.289
					c0,1.921,0.099,4.679,0.148,5.664H320.147z"/>
				<path fill="#009A5B" d="M336.352,433.748c0,1.872,0.099,4.679,0.197,5.664h-6.994c-0.099-0.985-0.197-3.793-0.197-5.664V410.45
					c0-1.872-0.049-4.679-0.148-5.664l6.649-0.197l0.493,0.492V433.748z"/>
				<path fill="#009A5B" d="M348.174,439.412c-6.157,0-6.6-3.546-6.6-6.994c0-0.492,0-6.896,0.099-11.526
					c-1.527,0.049-2.512,0.049-3.004,0.049l0.049-4.975c0.493,0,1.428,0,2.955,0.049c-0.049-2.709-0.099-6.206-0.099-6.649
					l0.493-0.493h6.502c0,0.443,0,3.399-0.098,7.142c1.724-0.049,4.039-0.049,4.531-0.049l-0.098,4.975
					c-0.493,0-2.709,0-4.433-0.049c0.049,4.482,0.049,10.245,0.049,10.688c0,2.463,0.049,2.955,2.216,2.955h1.921l0.099,4.384
					l-0.493,0.493H348.174z"/>
			</g>
		</g>
	</g>
</g>
</svg>
